<?xml version="1.0" standalone="no"?>
<!DOCTYPE svg PUBLIC "-//W3C//DTD SVG 20010904//EN"
 "http://www.w3.org/TR/2001/REC-SVG-20010904/DTD/svg10.dtd">
<svg version="1.0" xmlns="http://www.w3.org/2000/svg"
 width="512.000000pt" height="512.000000pt" viewBox="0 0 512.000000 512.000000"
 preserveAspectRatio="xMidYMid meet">

<g transform="translate(0.000000,512.000000) scale(0.100000,-0.100000)"
fill="#000000" stroke="none">
<path d="M2360 5109 c-134 -11 -250 -30 -250 -41 0 -13 1352 -2358 1359 -2358
3 1 124 207 267 458 144 251 353 616 465 811 l204 354 -80 74 c-455 422 -990
656 -1605 703 -149 11 -218 11 -360 -1z"/>
<path d="M1840 5015 c-140 -39 -254 -83 -419 -165 -477 -237 -860 -604 -1120
-1075 -54 -100 -151 -314 -151 -336 0 -5 563 -10 1360 -11 748 -2 1360 -1
1360 1 0 15 -927 1610 -935 1610 -5 0 -48 -11 -95 -24z"/>
<path d="M4018 3353 c-268 -467 -575 -1000 -682 -1185 l-194 -338 802 -2 c440
-2 857 -3 924 -3 147 0 150 2 176 117 144 631 71 1230 -221 1800 -78 153 -285
458 -311 458 -4 0 -226 -381 -494 -847z"/>
<path d="M92 3253 c-17 -32 -53 -196 -73 -328 -24 -167 -26 -518 -4 -692 59
-453 255 -926 521 -1255 30 -38 58 -68 62 -68 7 0 1334 2307 1348 2343 6 16
-46 17 -920 17 -871 0 -926 -1 -934 -17z"/>
<path d="M1593 2324 c-84 -144 -861 -1500 -873 -1523 -11 -22 -8 -28 42 -78
85 -88 224 -200 351 -284 341 -226 691 -361 1087 -419 205 -30 719 -24 776 9
6 4 -251 461 -652 1161 -365 635 -669 1166 -677 1179 -14 24 -15 23 -54 -45z"/>
<path d="M2233 1658 c3 -7 208 -366 455 -798 393 -687 452 -785 474 -788 31
-4 245 65 387 124 485 203 886 547 1178 1008 59 92 211 390 228 444 l6 22
-1366 0 c-1090 0 -1366 -3 -1362 -12z"/>
</g>
</svg>
